<svg xmlns="http://www.w3.org/2000/svg" width="497.637" height="237.439" viewBox="0 0 497.637 237.439">
  <g id="Grupo_1987" data-name="Grupo 1987" transform="translate(-565.542 -5937.145)">
    <g id="Grupo_1736" data-name="Grupo 1736" transform="translate(565.542 5937.145)">
      <g id="Grupo_1728" data-name="Grupo 1728" transform="translate(74.155 92.94)">
        <path id="Trazado_669" data-name="Trazado 669" d="M661.214,5992.874a2.419,2.419,0,0,0-2.421,2.416V6034.8c0,19.137,12.3,31.607,31.429,31.607H706.5a2.429,2.429,0,0,0,2.417-2.426v-19.452a2.43,2.43,0,0,0-2.417-2.417h-10.4c-1.327,0-7.545-.212-7.545-7.545V5995.29a2.423,2.423,0,0,0-2.424-2.416Z" transform="translate(-658.793 -5992.874)" fill="#d7282f"/>
        <path id="Trazado_670" data-name="Trazado 670" d="M703.168,6006.224a2.435,2.435,0,0,0-2.426,2.431v22.29a2.43,2.43,0,0,0,2.426,2.418h11.869c1.335,0,6.011.2,6.011,7.55v25.806a2.433,2.433,0,0,0,2.421,2.423h24.924a2.428,2.428,0,0,0,2.424-2.423v-28.88c0-19.139-12.3-31.615-31.432-31.615Z" transform="translate(-667.384 -5995.608)" fill="#d7282f"/>
      </g>
      <g id="Grupo_1730" data-name="Grupo 1730" transform="translate(1.289 46.48)">
        <g id="Grupo_1729" data-name="Grupo 1729">
          <path id="Trazado_671" data-name="Trazado 671" d="M593.664,6016.685c.355.072.49.306.41.7-.391,1.959-.556,2.945-.824,4.931a.657.657,0,0,1-.23.438.916.916,0,0,1-.47.195c-2.275.243-3.413.384-5.688.707a71.033,71.033,0,0,0-.494,7.927c2.217.585,3.329.86,5.555,1.378a.908.908,0,0,1,.442.253.66.66,0,0,1,.173.469c.019,2.025.06,3.043.21,5.078.03.413-.132.633-.493.664a.14.14,0,0,1-.07-.013.209.209,0,0,0-.1-.01,153.288,153.288,0,0,1-21.3-5.014,4.529,4.529,0,0,1-1.98-1.171,5.124,5.124,0,0,1-1.126-1.856,8.938,8.938,0,0,1-.466-2.311,18.639,18.639,0,0,1-.015-2.476,18.238,18.238,0,0,1,.313-2.43,8.964,8.964,0,0,1,.74-2.214,5.232,5.232,0,0,1,1.343-1.721,4.671,4.671,0,0,1,2.112-.957,130.923,130.923,0,0,1,21.787-2.571.216.216,0,0,0,.1,0A.162.162,0,0,1,593.664,6016.685Zm-21.105,9.566a1.494,1.494,0,0,0-.4.159c-.083.056-.131.19-.144.4a.6.6,0,0,0,.472.657c3.685,1.263,5.538,1.849,9.257,2.927.069-2.442.146-3.658.378-6.076C578.29,6024.977,576.376,6025.364,572.559,6026.251Z" transform="translate(-567.162 -5951.289)" fill="#76777a"/>
          <path id="Trazado_672" data-name="Trazado 672" d="M599.833,5998.234c-.122.534-.224,1.006-.324,1.4s-.239.831-.414,1.318a14.654,14.654,0,0,1-1.047,2.346,4.445,4.445,0,0,1-1.377,1.527,4.1,4.1,0,0,1-2.019.626,9.181,9.181,0,0,1-2.941-.382c-3.8-1.027-5.7-1.536-9.512-2.545-.53,1.265-.784,1.9-1.271,3.193a1.734,1.734,0,0,1-.389.549.546.546,0,0,1-.51.174l-2.19-.471a.618.618,0,0,1-.418-.385,1.013,1.013,0,0,1-.07-.674c.326-1.381.5-2.067.876-3.434l-2.693-.706a.5.5,0,0,1-.355-.372,1.769,1.769,0,0,1-.057-.676c.33-2.212.526-3.316.978-5.521.018-.052.027-.078.044-.131a1.064,1.064,0,0,1,.34-.514.492.492,0,0,1,.479-.08c1.363.463,2.044.7,3.407,1.16.483-1.367.738-2.046,1.271-3.4a.983.983,0,0,1,.42-.5.6.6,0,0,1,.546-.069c1.031.405,1.547.608,2.578,1.016a.6.6,0,0,1,.351.413.924.924,0,0,1-.028.626c-.511,1.292-.755,1.942-1.219,3.253,3.738,1.285,5.6,1.933,9.334,3.235a2.885,2.885,0,0,0,1.3.257c.223-.054.431-.348.629-.883.255-.686.386-1.026.655-1.705.192-.485.468-.655.822-.513.974.394,1.462.59,2.435.984C599.814,5997.5,599.932,5997.795,599.833,5998.234Z" transform="translate(-568.79 -5945.955)" fill="#76777a"/>
          <path id="Trazado_673" data-name="Trazado 673" d="M604.344,5986.1a.621.621,0,0,1-.034.529c-.82,1.532-1.209,2.309-1.944,3.88a.733.733,0,0,1-.417.375.673.673,0,0,1-.546.008q-11.221-5.1-22.515-10.033a.562.562,0,0,1-.309-.468,1.188,1.188,0,0,1,.1-.7c.969-2.087,1.483-3.117,2.565-5.15a1,1,0,0,1,.482-.467.609.609,0,0,1,.544-.006q10.907,5.737,21.734,11.628A.723.723,0,0,1,604.344,5986.1Z" transform="translate(-569.497 -5942.549)" fill="#76777a"/>
          <path id="Trazado_674" data-name="Trazado 674" d="M619.36,5965.987a.72.72,0,0,1-.193.51c-1.094,1.192-1.624,1.8-2.652,3.042a.723.723,0,0,1-.478.26.636.636,0,0,1-.506-.132l-.423-.342a10.841,10.841,0,0,1-.5,2.44,9.4,9.4,0,0,1-1.325,2.47,9.94,9.94,0,0,1-1.528,1.7,5.7,5.7,0,0,1-1.884,1.109,5.14,5.14,0,0,1-2.274.242,6.569,6.569,0,0,1-2.666-.977l-.262-.157a4.528,4.528,0,0,1-2.5-4.233c.072-1.812,1.1-4.216,3.245-7.018.539-.7.813-1.052,1.37-1.744l-.959-.76a1.94,1.94,0,0,0-2.021-.514,4.907,4.907,0,0,0-1.779,1.587q-.614.818-1.209,1.674t-1.105,1.665q-.512.807-.889,1.473c-.251.442-.456.814-.62,1.111l-.114.179a1.026,1.026,0,0,1-.41.395.533.533,0,0,1-.519-.069c-.938-.576-1.407-.863-2.344-1.438-.328-.2-.4-.57-.189-1.1a30.141,30.141,0,0,1,1.446-3.049,27.876,27.876,0,0,1,2.34-3.664,18.185,18.185,0,0,1,3-3.181,8.963,8.963,0,0,1,3.052-1.7,5.6,5.6,0,0,1,2.965-.1,6.46,6.46,0,0,1,2.827,1.619c3.574,3.277,5.356,4.922,8.908,8.221A.631.631,0,0,1,619.36,5965.987Zm-9.951-.9c-.569.7-.848,1.059-1.4,1.775a4.194,4.194,0,0,0-1.151,2.576,2.3,2.3,0,0,0,1.122,1.645l.25.174a1.446,1.446,0,0,0,1.479.324,4.209,4.209,0,0,0,1.3-1.262,6.375,6.375,0,0,0,.818-1.433,12.056,12.056,0,0,0,.492-1.468C611.159,5966.487,610.576,5966.021,609.408,5965.089Z" transform="translate(-572.762 -5938.763)" fill="#76777a"/>
          <path id="Trazado_675" data-name="Trazado 675" d="M635.4,5944.886a5.2,5.2,0,0,1,.824,2.142,5.138,5.138,0,0,1-.219,2.345,8.3,8.3,0,0,1-1.313,2.422,14.4,14.4,0,0,1-2.491,2.485q-.6.483-1.285,1t-1.427,1.027q-.737.513-1.446.983t-1.329.827a.781.781,0,0,1-1.046-.077c-.769-.786-1.154-1.179-1.925-1.963a.612.612,0,0,1-.184-.461.731.731,0,0,1,.258-.508l.112-.105q.627-.459,1.382-1.037t1.5-1.135c.495-.372.953-.72,1.371-1.042s.751-.581.992-.776a3.65,3.65,0,0,0,1.24-1.4,1.151,1.151,0,0,0-.262-1.064.977.977,0,0,0-.679-.354,4.242,4.242,0,0,0-1.364.145c-2.267.506-3.4.8-5.67,1.472a7.817,7.817,0,0,1-3.415.321,4.805,4.805,0,0,1-2.775-1.4,4.145,4.145,0,0,1-1.154-4.322c.474-1.669,1.893-3.576,4.341-5.565a28.312,28.312,0,0,1,3.734-2.616,33.3,33.3,0,0,1,3.26-1.633c.544-.235.934-.182,1.165.155.624.9.937,1.358,1.56,2.264.243.355.157.669-.254.95l-.108.075c-.292.145-.691.366-1.194.666s-1.049.637-1.628,1.007-1.165.761-1.75,1.17-1.094.789-1.524,1.135a5.142,5.142,0,0,0-1.251,1.288.755.755,0,0,0,.111.927.772.772,0,0,0,.673.255,6.606,6.606,0,0,0,1.12-.2c2.258-.6,3.389-.867,5.647-1.318a10.272,10.272,0,0,1,2.445-.217,6.018,6.018,0,0,1,1.794.339,3.823,3.823,0,0,1,1.277.76A5.779,5.779,0,0,1,635.4,5944.886Z" transform="translate(-576.938 -5934.449)" fill="#76777a"/>
        </g>
      </g>
      <g id="Grupo_1731" data-name="Grupo 1731">
        <path id="Trazado_676" data-name="Trazado 676" d="M789.229,6076.466a2.513,2.513,0,0,1-2.122-3.854,125,125,0,1,0-216.821-123.985,2.512,2.512,0,1,1-4.462-2.31,130.021,130.021,0,1,1,225.533,128.977A2.51,2.51,0,0,1,789.229,6076.466Z" transform="translate(-565.542 -5876)" fill="#d7282f"/>
      </g>
      <g id="Grupo_1732" data-name="Grupo 1732" transform="translate(43.235 69.243)">
        <path id="Trazado_677" data-name="Trazado 677" d="M692.3,6095.6a72.4,72.4,0,0,1-40.964-132.088,2.513,2.513,0,0,1,2.846,4.142,67.374,67.374,0,1,0,98.052,86.347,2.513,2.513,0,0,1,4.468,2.3A72.173,72.173,0,0,1,692.3,6095.6Z" transform="translate(-619.91 -5963.075)" fill="#d7282f"/>
      </g>
      <g id="Grupo_1733" data-name="Grupo 1733" transform="translate(29.606 52.024)">
        <path id="Trazado_678" data-name="Trazado 678" d="M689.038,6107.107a88.265,88.265,0,0,1-86.215-70.27,2.513,2.513,0,0,1,4.923-1.007,82.987,82.987,0,1,0,120.842-89.688,2.513,2.513,0,1,1,2.4-4.417,88.014,88.014,0,0,1-41.949,165.382Z" transform="translate(-602.771 -5941.421)" fill="#76777a"/>
      </g>
      <g id="Grupo_1734" data-name="Grupo 1734" transform="translate(59.079 27.884)">
        <path id="Trazado_679" data-name="Trazado 679" d="M696.628,6114.71a101.419,101.419,0,0,1-55.655-16.542,2.512,2.512,0,1,1,2.75-4.205,96.8,96.8,0,1,0,52.9-177.873,98.028,98.028,0,0,0-14.642,1.1,2.513,2.513,0,0,1-.754-4.969,103.164,103.164,0,0,1,15.4-1.156,101.822,101.822,0,1,1,0,203.645Z" transform="translate(-639.835 -5911.065)" fill="#d7282f"/>
      </g>
      <g id="Grupo_1735" data-name="Grupo 1735" transform="translate(56.212 13.673)">
        <path id="Trazado_680" data-name="Trazado 680" d="M738.537,6116.96a2.513,2.513,0,0,1-.95-4.84A111.062,111.062,0,1,0,640,5913.164a2.512,2.512,0,1,1-2.522-4.346,116.088,116.088,0,1,1,102,207.955A2.494,2.494,0,0,1,738.537,6116.96Z" transform="translate(-636.229 -5893.194)" fill="#76777a"/>
      </g>
    </g>
    <path id="Trazado_971" data-name="Trazado 971" d="M-47.185-1.328Q-47.185,0-48.6,0h-11.62A1.46,1.46,0,0,1-61.3-.415a2.265,2.265,0,0,1-.581-1.079l-2.988-13.612H-81.879L-84.867-1.494a2.265,2.265,0,0,1-.581,1.079A1.46,1.46,0,0,1-86.527,0h-11.62q-1.411,0-1.411-1.328a.368.368,0,0,1,.041-.166.578.578,0,0,0,.042-.249L-87.108-53.2a12.935,12.935,0,0,1,2.158-4.814,9.74,9.74,0,0,1,3.278-2.78,13.19,13.19,0,0,1,4.026-1.287,28.346,28.346,0,0,1,4.316-.332,27.542,27.542,0,0,1,4.275.332A13.185,13.185,0,0,1-65.072-60.8a9.74,9.74,0,0,1,3.279,2.78A12.935,12.935,0,0,1-59.635-53.2l12.367,51.46a.578.578,0,0,0,.041.249A.368.368,0,0,1-47.185-1.328ZM-72.251-49.385a4.051,4.051,0,0,0-.332-.955q-.166-.29-.747-.29-.913,0-1.162,1.245l-5.063,22.908h12.367Zm58.93,47.827q0,1.4-1.577,1.646-1.909.329-3.32.494a28.216,28.216,0,0,1-3.237.165A27.6,27.6,0,0,1-27.439.166,9.529,9.529,0,0,1-31.77-1.951a9.587,9.587,0,0,1-2.64-4.316,23.63,23.63,0,0,1-.907-7.179v-24.07l-6.64-1.079a2.951,2.951,0,0,1-1.2-.623,1.414,1.414,0,0,1-.54-1.12v-5.478a1.667,1.667,0,0,1,.54-1.2,1.667,1.667,0,0,1,1.2-.54h6.64v-6.806a1.342,1.342,0,0,1,.495-1.079,2.853,2.853,0,0,1,1.155-.581L-23.6-57.768h.248a1.536,1.536,0,0,1,1.073.374,1.329,1.329,0,0,1,.412,1.037v8.8h6.806a1.587,1.587,0,0,1,1.162.5,1.613,1.613,0,0,1,.5,1.172v6.777a1.613,1.613,0,0,1-.5,1.172,1.587,1.587,0,0,1-1.162.5H-21.87V-13.28a7.613,7.613,0,0,0,.415,3.2q.415.705,2.324.705h4.067q1.743,0,1.743,1.4ZM7.761-1.743A1.817,1.817,0,0,1,7.3-.539,1.414,1.414,0,0,1,6.184,0H-3.942a1.667,1.667,0,0,1-1.2-.539,1.667,1.667,0,0,1-.54-1.2V-62a1.536,1.536,0,0,1,.54-1.162,1.733,1.733,0,0,1,1.2-.5H6.184a1.461,1.461,0,0,1,1.121.5A1.666,1.666,0,0,1,7.761-62Zm46.646.083a1.593,1.593,0,0,1-.5,1.162,1.593,1.593,0,0,1-1.162.5h-9.3a1.593,1.593,0,0,1-1.162-.5,1.593,1.593,0,0,1-.5-1.162V-2.988a21.188,21.188,0,0,1-5.1,2.739,18.6,18.6,0,0,1-6.433,1A19.541,19.541,0,0,1,24.983.042,12.026,12.026,0,0,1,20.46-2.324a11.763,11.763,0,0,1-3.2-4.4,16.937,16.937,0,0,1-1.2-6.806v-.747q0-7.3,4.856-10.665T36.479-28.3h4.482v-2.988q0-3.569-1.66-4.648a8.316,8.316,0,0,0-4.565-1.079q-1.992,0-4.026.042t-3.9.125q-1.868.083-3.361.208l-2.49.208h-.415a1.674,1.674,0,0,1-1.079-.332,1.411,1.411,0,0,1-.415-1.162v-6.723a1.8,1.8,0,0,1,1.577-1.826q2.324-.581,6.267-1.162a55.443,55.443,0,0,1,8.093-.581,31.683,31.683,0,0,1,8.092.955,15.941,15.941,0,0,1,6.1,2.988,13.463,13.463,0,0,1,3.86,5.229,19.673,19.673,0,0,1,1.369,7.761ZM41.21-20.335H36.479q-4.316,0-5.81,1.494a6.213,6.213,0,0,0-1.494,4.565v.747q0,2.656,1.286,3.4a8.086,8.086,0,0,0,3.943.747,11.877,11.877,0,0,0,3.61-.539,22,22,0,0,0,3.2-1.287ZM97.649-13.2A14.02,14.02,0,0,1,96.57-7.719a11.7,11.7,0,0,1-3.278,4.441,16.116,16.116,0,0,1-5.52,2.947A25.621,25.621,0,0,1,79.887.747q-1.743,0-3.693-.125T72.21.249Q70.176,0,68.268-.332t-3.486-.747A1.847,1.847,0,0,1,63.2-2.988V-9.711a1.6,1.6,0,0,1,.417-1.12,1.5,1.5,0,0,1,1.167-.457h.333q1.666.249,3.708.457t4.042.373q2,.166,3.708.249t2.708.083q3,0,3.958-.788a2.988,2.988,0,0,0,.958-2.449,2.587,2.587,0,0,0-.667-1.7,9.271,9.271,0,0,0-2.416-1.785L70.288-23.074a15.149,15.149,0,0,1-5.457-5.1,13.2,13.2,0,0,1-1.958-7.18q0-6.308,4.166-9.587T79.8-48.223a53.283,53.283,0,0,1,8.259.54q3.361.539,6.515,1.369a1.847,1.847,0,0,1,1.577,1.909v6.723q0,1.577-1.411,1.577H94.5q-.913-.166-2.573-.332t-3.611-.332q-1.95-.166-3.984-.291t-3.61-.125a8.264,8.264,0,0,0-3.4.5,1.929,1.929,0,0,0-1,1.909,2.018,2.018,0,0,0,.667,1.536,11.534,11.534,0,0,0,1.917,1.37l10.332,5.893a22.582,22.582,0,0,1,4.208,3.03A14.676,14.676,0,0,1,96.025-19.8a10.47,10.47,0,0,1,1.292,3.278A16.828,16.828,0,0,1,97.649-13.2ZM-101.262,32.177l9.324,31.636,16.421-31.45L-59.375,64.37l9.88-32.192h17.163L-57.1,99.438h-.371l-17.859-34.79-19.2,34.79h-.278L-117.5,32.177Zm88.691,67.354a28.241,28.241,0,0,1-13.406-3.34A26.222,26.222,0,0,1-36,87.053a23.677,23.677,0,0,1-3.757-13.081,23.671,23.671,0,0,1,2.18-10.112,25.062,25.062,0,0,1,5.984-8.118,27.365,27.365,0,0,1,8.767-5.334,29.3,29.3,0,0,1,10.251-1.855,29.425,29.425,0,0,1,10.3,1.855A26.3,26.3,0,0,1,6.494,55.7a25.337,25.337,0,0,1,5.984,8.164,23.672,23.672,0,0,1,2.18,10.112,23.7,23.7,0,0,1-2.134,10.112,25.538,25.538,0,0,1-6.03,8.21,27.6,27.6,0,0,1-8.767,5.334A28.058,28.058,0,0,1-12.571,99.531ZM-24.956,73.972a11.436,11.436,0,0,0,3.711,8.535,12.01,12.01,0,0,0,8.674,3.572A12.064,12.064,0,0,0-3.85,82.507,11.436,11.436,0,0,0-.139,73.972a11.046,11.046,0,0,0-1.716-5.984,12.687,12.687,0,0,0-4.592-4.36A12.1,12.1,0,0,0-12.571,62a12.177,12.177,0,0,0-6.077,1.624,12.687,12.687,0,0,0-4.592,4.36A11.046,11.046,0,0,0-24.956,73.972Zm66.287-25.1a24.276,24.276,0,0,0-3.015-.278H37.48q-20.5,1.021-20.5,21.292V98H31.821V69.89q0-7.654,5.659-7.886h.835a5.793,5.793,0,0,1,3.015.881Zm2.319-16.7,14.8-.046V97.907l-14.8.186Zm56.731,41.841a10.816,10.816,0,0,0-1.716-5.937,12.687,12.687,0,0,0-4.592-4.36A12.01,12.01,0,0,0,88,62.1a12.262,12.262,0,0,0-6.123,1.624,12.687,12.687,0,0,0-4.592,4.36,10.816,10.816,0,0,0-1.716,5.938,11.436,11.436,0,0,0,3.711,8.535,12.375,12.375,0,0,0,17.4,0A11.436,11.436,0,0,0,100.381,74.018Zm14.8.325A23.184,23.184,0,0,1,111.421,87.1a25.868,25.868,0,0,1-10.02,9.092,28.684,28.684,0,0,1-23.7,1.438,26.531,26.531,0,0,1-8.767-5.334A25.7,25.7,0,0,1,62.9,84.13a24.674,24.674,0,0,1,.046-20.178,24.829,24.829,0,0,1,5.984-8.118A26.942,26.942,0,0,1,77.7,50.5a30.082,30.082,0,0,1,20.549,0l1.067.464,1.067.464V31.853l14.8.046Z" transform="translate(948 6035)" fill="#76777a"/>
  </g>
</svg>
