<?xml version="1.0" encoding="utf-8"?>
<!-- Generator: Adobe Illustrator 21.0.0, SVG Export Plug-In . SVG Version: 6.00 Build 0)  -->
<svg version="1.1" id="Layer_1" xmlns="http://www.w3.org/2000/svg" xmlns:xlink="http://www.w3.org/1999/xlink" x="0px" y="0px"
	 viewBox="0 0 223.5 219.8" style="enable-background:new 0 0 223.5 219.8;" xml:space="preserve">
<style type="text/css">
	.st0{fill:#FFFFFF;}
</style>
<g>
	<path class="st0" d="M47.5,214v-39.7c-22.6-17.9-35.6-43.9-35.6-71.7c0-51.7,45-93.8,100.3-93.8c55.3,0,100.3,42.1,100.3,93.8
		c0,51.7-45,93.8-100.3,93.8c-9.1,0-18.1-1.1-26.8-3.4L47.5,214z M112.2,18.5c-50,0-90.6,37.7-90.6,84.1c0,25.5,12.3,49.3,33.7,65.4
		l1.9,1.4v28.1l27.1-14.9l1.9,0.5c8.4,2.4,17.2,3.5,26.1,3.5c50,0,90.6-37.7,90.6-84.1C202.9,56.2,162.2,18.5,112.2,18.5z"/>
</g>
<g>
	<polygon class="st0" points="121.7,133.5 97.4,107.4 49.9,133.5 102.1,77.7 127,103.8 173.9,77.7 	"/>
</g>
</svg>
